# Blender v2.77 (sub 0) OBJ File: 'arrow.blend'
# www.blender.org
mtllib arrow.mtl
o Plane
v -1.000000 0.333333 1.714286
v 2.000000 0.333333 -0.285714
v -2.000000 0.333333 -0.285714
v 1.000000 0.333333 1.714286
v 0.000000 0.333333 -2.285714
v 1.000000 0.333333 -0.285714
v -1.000000 0.333333 -0.285714
v 0.000000 -0.666667 -2.285714
v -2.000000 -0.666667 -0.285714
v 2.000000 -0.666667 -0.285714
v -1.000000 -0.666667 1.714286
v 1.000000 -0.666667 1.714286
v -1.000000 -0.666667 -0.285714
v 1.000000 -0.666667 -0.285714
vn 0.0000 1.0000 0.0000
vn -1.0000 0.0000 0.0000
vn 0.7071 0.0000 -0.7071
vn 0.0000 0.0000 1.0000
vn 1.0000 0.0000 0.0000
vn -0.7071 0.0000 -0.7071
vn 0.0000 -1.0000 0.0000
usemtl None
s off
f 4//1 6//1 7//1 1//1
f 1//2 7//2 13//2 11//2
f 5//3 2//3 10//3 8//3
f 7//4 3//4 9//4 13//4
f 6//5 4//5 12//5 14//5
f 2//4 6//4 14//4 10//4
f 3//6 5//6 8//6 9//6
f 4//4 1//4 11//4 12//4
f 2//1 5//1 6//1
f 3//1 7//1 5//1
f 7//1 6//1 5//1
f 10//7 14//7 8//7
f 9//7 8//7 13//7
f 8//7 14//7 13//7
f 11//7 13//7 14//7 12//7
